<?xml version="1.0" encoding="utf-8"?>
<!-- Generator: Adobe Illustrator 16.0.0, SVG Export Plug-In . SVG Version: 6.00 Build 0)  -->
<!DOCTYPE svg PUBLIC "-//W3C//DTD SVG 1.1//EN" "http://www.w3.org/Graphics/SVG/1.1/DTD/svg11.dtd">
<svg version="1.1" xmlns="http://www.w3.org/2000/svg" xmlns:xlink="http://www.w3.org/1999/xlink" x="0px" y="0px"
	 width="297.45px" height="419.877px" viewBox="0 0 297.45 419.877" enable-background="new 0 0 297.45 419.877"
	 xml:space="preserve">
<g id="_x31_170px_grid">
</g>
<g id="Splash">
	<g id="Spark">
	</g>
	<g>
		<g>
			<polygon fill="#151515" points="233.093,15.547 208.405,15.547 234.079,43.406 234.079,56.666 181.196,56.666 181.196,41.141 
				206.866,41.141 181.196,13.281 181.196,0 233.093,0 			"/>
			<polygon fill="#151515" points="170.716,15.547 146.027,15.547 171.7,43.406 171.7,56.666 118.818,56.666 118.818,41.141 
				144.49,41.141 118.818,13.281 118.818,0 170.716,0 			"/>
			<polygon fill="#151515" points="108.947,16.178 82.307,16.178 82.307,40.491 108.947,40.491 108.947,56.666 63.373,56.666 
				63.373,0 108.947,0 			"/>
		</g>
		<polygon fill="#1673B6" points="27.07,386.156 0,82.536 297.45,82.536 270.354,386.107 148.543,419.877 		"/>
		<polygon fill="#35A9DB" points="148.727,394.066 247.153,366.777 270.312,107.362 148.727,107.362 		"/>
		<g>
			<polygon fill="#FFFFFF" points="148.727,217.362 198.001,217.362 201.403,179.23 148.727,179.23 148.727,141.991 
				148.855,141.991 242.101,141.991 241.208,151.982 232.056,254.598 148.727,254.598 			"/>
			<polygon fill="#EBEBEB" points="148.949,314.069 148.787,314.116 107.314,302.916 104.662,273.219 84.512,273.219 
				67.283,273.219 72.5,331.688 148.777,352.863 148.949,352.814 			"/>
			<polygon fill="#FFFFFF" points="194.837,253.021 190.353,302.891 148.82,314.103 148.82,352.844 225.159,331.688 225.72,325.396 
				232.196,253.021 			"/>
			<polygon fill="#EBEBEB" points="148.855,141.991 148.855,165.119 148.855,179.139 148.855,179.23 59.027,179.23 59.027,179.23 
				58.908,179.23 58.162,170.86 56.465,151.982 55.574,141.991 			"/>
			<polygon fill="#EBEBEB" points="148.727,217.366 148.727,240.495 148.727,254.512 148.727,254.604 107.898,254.604 
				107.898,254.604 107.779,254.604 107.033,246.235 105.336,227.357 104.445,217.366 			"/>
		</g>
	</g>
</g>
</svg>
