<?xml version="1.0" encoding="utf-8"?>
<!-- Generator: Adobe Illustrator 16.0.0, SVG Export Plug-In . SVG Version: 6.00 Build 0)  -->
<!DOCTYPE svg PUBLIC "-//W3C//DTD SVG 1.1//EN" "http://www.w3.org/Graphics/SVG/1.1/DTD/svg11.dtd">
<svg version="1.1" xmlns="http://www.w3.org/2000/svg" xmlns:xlink="http://www.w3.org/1999/xlink" x="0px" y="0px"
	 width="297.449px" height="419.853px" viewBox="0 0 297.449 419.853" enable-background="new 0 0 297.449 419.853"
	 xml:space="preserve">
<g id="_x31_170px_grid">
</g>
<g id="Splash">
	<g id="Spark">
	</g>
	<g>
		<polygon fill="#E45126" points="27.069,386.132 0,82.512 297.449,82.512 270.352,386.083 148.543,419.853 		"/>
		<polygon fill="#F1682B" points="148.725,394.04 247.152,366.753 270.311,107.337 148.725,107.337 		"/>
		<polygon fill="#EBEBEB" points="148.725,219.946 99.449,219.946 96.045,181.814 148.725,181.814 148.725,144.575 148.596,144.575 
			55.35,144.575 56.242,154.566 65.394,257.182 148.725,257.182 		"/>
		<polygon fill="#EBEBEB" points="148.725,316.653 148.562,316.7 107.09,305.5 104.438,275.803 84.287,275.803 67.058,275.803 
			72.274,334.271 148.553,355.446 148.725,355.397 		"/>
		<g>
			<path fill="#020202" d="M27.674,0h18.925v18.696H63.91V0h18.924v56.618H63.91V37.66h-17.31v18.958H27.674V0L27.674,0z"/>
			<path fill="#020202" d="M107.719,18.776h-16.66V0.001h52.252v18.775h-16.667v37.843H107.72L107.719,18.776L107.719,18.776z"/>
			<path fill="#020202" d="M151.604,0h19.732l12.139,19.895L195.602,0h19.738v56.618h-18.846V28.555l-13.021,20.131h-0.324
				l-13.029-20.131v28.063h-18.517L151.604,0L151.604,0z"/>
			<path fill="#020202" d="M224.758,0h18.93v37.903h26.611v18.714h-45.543L224.758,0L224.758,0z"/>
		</g>
		<polygon fill="#FFFFFF" points="148.596,219.946 148.596,257.182 194.449,257.182 190.127,305.475 148.596,316.687 
			148.596,355.429 224.936,334.271 225.494,327.979 234.246,229.945 235.154,219.946 225.119,219.946 		"/>
		<polygon fill="#FFFFFF" points="148.596,144.575 148.596,167.703 148.596,181.723 148.596,181.814 238.422,181.814 
			238.422,181.814 238.543,181.814 239.289,173.444 240.986,154.566 241.877,144.575 		"/>
	</g>
</g>
</svg>
