<?xml version="1.0" encoding="utf-8"?>
<!-- Generator: Adobe Illustrator 16.0.0, SVG Export Plug-In . SVG Version: 6.00 Build 0)  -->
<!DOCTYPE svg PUBLIC "-//W3C//DTD SVG 1.1//EN" "http://www.w3.org/Graphics/SVG/1.1/DTD/svg11.dtd">
<svg version="1.1" xmlns="http://www.w3.org/2000/svg" xmlns:xlink="http://www.w3.org/1999/xlink" x="0px" y="0px"
	 width="345.67px" height="347px" viewBox="0 0 345.67 347" enable-background="new 0 0 345.67 347" xml:space="preserve">
<g id="_x31_170px_grid">
</g>
<g id="Splash">
	<g id="Spark">
		<g>
			<rect x="3.502" y="3.5" fill="#7E8AA2" width="200.666" height="249.334"/>
			<rect x="218.168" y="3.5" fill="#263248" width="124" height="249.334"/>
			<rect x="3.502" y="268.167" fill="#FF9800" width="338.666" height="75.333"/>
			<rect x="17.669" y="19.83" fill="#263248" width="172.332" height="216.674"/>
			
				<line fill="none" stroke="#000000" stroke-width="11.6439" stroke-linecap="round" stroke-linejoin="round" stroke-miterlimit="10" x1="103.835" y1="93.031" x2="103.835" y2="48.531"/>
			
				<line fill="none" stroke="#000000" stroke-width="11.6439" stroke-linecap="round" stroke-linejoin="round" stroke-miterlimit="10" x1="81.275" y1="101.319" x2="52.671" y2="67.23"/>
			
				<line fill="none" stroke="#000000" stroke-width="11.6439" stroke-linecap="round" stroke-linejoin="round" stroke-miterlimit="10" x1="69.321" y1="122.17" x2="25.497" y2="114.442"/>
			
				<line fill="none" stroke="#000000" stroke-width="11.6439" stroke-linecap="round" stroke-linejoin="round" stroke-miterlimit="10" x1="73.566" y1="145.826" x2="35.027" y2="168.076"/>
			
				<line fill="none" stroke="#000000" stroke-width="11.6439" stroke-linecap="round" stroke-linejoin="round" stroke-miterlimit="10" x1="92.023" y1="161.219" x2="76.804" y2="203.036"/>
			
				<line fill="none" stroke="#000000" stroke-width="11.6439" stroke-linecap="round" stroke-linejoin="round" stroke-miterlimit="10" x1="116.057" y1="161.146" x2="131.277" y2="202.964"/>
			
				<line fill="none" stroke="#000000" stroke-width="11.6439" stroke-linecap="round" stroke-linejoin="round" stroke-miterlimit="10" x1="134.421" y1="145.643" x2="172.96" y2="167.894"/>
			
				<line fill="none" stroke="#000000" stroke-width="11.6439" stroke-linecap="round" stroke-linejoin="round" stroke-miterlimit="10" x1="138.523" y1="121.962" x2="182.349" y2="114.234"/>
			
				<line fill="none" stroke="#000000" stroke-width="11.6439" stroke-linecap="round" stroke-linejoin="round" stroke-miterlimit="10" x1="126.444" y1="101.185" x2="155.049" y2="67.095"/>
			<polygon fill="#FFFFFF" stroke="#000000" stroke-width="6.4379" stroke-miterlimit="10" points="198.655,211.907 
				103.941,128.167 103.277,254.588 136.213,239.849 160.641,294.434 190.146,281.23 165.718,226.646 			"/>
		</g>
	</g>
</g>
</svg>
