<?xml version="1.0" encoding="utf-8"?>
<!-- Generator: Adobe Illustrator 16.0.0, SVG Export Plug-In . SVG Version: 6.00 Build 0)  -->
<!DOCTYPE svg PUBLIC "-//W3C//DTD SVG 1.1//EN" "http://www.w3.org/Graphics/SVG/1.1/DTD/svg11.dtd">
<svg version="1.1" xmlns="http://www.w3.org/2000/svg" xmlns:xlink="http://www.w3.org/1999/xlink" x="0px" y="0px"
	 width="407.602px" height="462.27px" viewBox="0 0 407.602 462.27" enable-background="new 0 0 407.602 462.27"
	 xml:space="preserve">
<g id="_x31_170px_grid">
</g>
<g id="Splash">
	<g id="Spark">
	</g>
	<g>
		<polygon fill="#E4A227" points="37.092,416.061 0,0 407.602,0 370.471,415.994 203.553,462.27 		"/>
		<polygon fill="#F0BF26" points="203.459,426.384 338.336,388.992 370.07,33.506 203.459,33.506 		"/>
		<polygon fill="#EBEBEB" points="203.381,320.374 203.158,320.438 146.328,305.092 142.693,264.396 115.08,264.396 91.471,264.396 
			98.621,344.516 203.146,373.533 203.381,373.467 		"/>
		<polygon fill="#EBEBEB" points="210.254,238.855 210.254,187.828 147.42,187.828 154.787,107.743 210.396,106.262 210.254,53.199 
			108.652,53.199 104.877,90.813 92.885,225.152 91.641,238.855 105.393,238.855 		"/>
		<polygon fill="#FFFFFF" points="209.91,106.333 210.131,106.271 265.865,109.627 270.594,162.312 298.207,162.312 
			321.818,162.312 312.893,63.722 210.145,53.176 209.91,53.241 		"/>
		<polyline fill="#FFFFFF" points="316.557,106.49 312.184,53.199 204.473,53.199 204.473,86.295 204.473,106.357 204.473,106.49 
			316.557,106.49 		"/>
		<polygon fill="#FFFFFF" points="203.205,187.854 203.205,238.878 266.039,238.878 260.115,305.057 203.205,320.42 
			203.205,373.508 307.814,344.516 308.58,335.895 320.574,201.555 321.818,187.854 308.066,187.854 		"/>
		<path fill="#FFFFFF" d="M310.002,104.229"/>
	</g>
</g>
</svg>
