<?xml version="1.0" encoding="utf-8"?>
<!-- Generator: Adobe Illustrator 16.0.0, SVG Export Plug-In . SVG Version: 6.00 Build 0)  -->
<!DOCTYPE svg PUBLIC "-//W3C//DTD SVG 1.1//EN" "http://www.w3.org/Graphics/SVG/1.1/DTD/svg11.dtd">
<svg version="1.1" xmlns="http://www.w3.org/2000/svg" xmlns:xlink="http://www.w3.org/1999/xlink" x="0px" y="0px"
	 width="297.449px" height="419.949px" viewBox="0 0 297.449 419.949" enable-background="new 0 0 297.449 419.949"
	 xml:space="preserve">
<g id="_x31_170px_grid">
</g>
<g id="Splash">
	<g id="Spark">
	</g>
	<g>
		<polygon fill="#E4A227" points="27.068,386.229 0,82.606 297.449,82.606 270.352,386.18 148.543,419.949 		"/>
		<polygon fill="#F0BF26" points="148.475,393.762 246.902,366.475 270.061,107.058 148.475,107.058 		"/>
		<g>
			<polygon fill="#151515" points="201.66,15.545 176.971,15.545 202.646,43.406 202.646,56.666 149.764,56.666 149.764,41.14 
				175.434,41.14 149.764,13.281 149.764,0 201.66,0 			"/>
			<path fill="#020202" d="M140.346,0.024v56.617H94.803V37.928h26.613V0.024h18.928H140.346z"/>
		</g>
		<polygon fill="#EBEBEB" points="148.418,316.4 148.256,316.447 106.783,305.248 104.131,275.55 83.98,275.55 66.752,275.55 
			71.969,334.018 148.246,355.193 148.418,355.145 		"/>
		<polygon fill="#EBEBEB" points="153.434,256.912 153.434,219.675 107.58,219.675 112.957,161.232 153.537,160.151 
			153.434,121.429 79.289,121.429 76.535,148.877 67.783,246.912 66.875,256.912 76.91,256.912 		"/>
		<polygon fill="#FFFFFF" points="153.182,160.203 153.344,160.158 194.016,162.606 197.467,201.054 217.617,201.054 
			234.848,201.054 228.334,129.107 153.354,121.412 153.182,121.459 		"/>
		<polyline fill="#FFFFFF" points="231.008,160.317 227.816,121.429 149.215,121.429 149.215,145.58 149.215,160.221 
			149.215,160.317 231.008,160.317 		"/>
		<polygon fill="#FFFFFF" points="148.289,219.692 148.289,256.929 194.143,256.929 189.82,305.223 148.289,316.434 
			148.289,355.176 224.629,334.018 225.188,327.727 233.939,229.691 234.848,219.692 224.813,219.692 		"/>
		<path fill="#FFFFFF" d="M226.225,158.668"/>
	</g>
</g>
</svg>
